<?xml version="1.0" encoding="UTF-8" standalone="no"?>
<!-- Generator: Adobe Illustrator 16.0.0, SVG Export Plug-In . SVG Version: 6.00 Build 0)  -->

<svg
   xmlns:dc="http://purl.org/dc/elements/1.1/"
   xmlns:cc="http://creativecommons.org/ns#"
   xmlns:rdf="http://www.w3.org/1999/02/22-rdf-syntax-ns#"
   xmlns:svg="http://www.w3.org/2000/svg"
   xmlns="http://www.w3.org/2000/svg"
   xmlns:sodipodi="http://sodipodi.sourceforge.net/DTD/sodipodi-0.dtd"
   xmlns:inkscape="http://www.inkscape.org/namespaces/inkscape"
   version="1.1"
   id="Capa_1"
   x="0px"
   y="0px"
   width="610"
   height="430"
   viewBox="0 0 431.12 431.12"
   xml:space="preserve"
   inkscape:version="0.91 r13725"
   sodipodi:docname="gaugeshrinkhorizontal.svg"><metadata
     id="metadata45"><rdf:RDF><cc:Work
         rdf:about=""><dc:format>image/svg+xml</dc:format><dc:type
           rdf:resource="http://purl.org/dc/dcmitype/StillImage" /><dc:title /></cc:Work></rdf:RDF></metadata><defs
     id="defs43" /><sodipodi:namedview
     pagecolor="#ffffff"
     bordercolor="#666666"
     borderopacity="1"
     objecttolerance="10"
     gridtolerance="10"
     guidetolerance="10"
     inkscape:pageopacity="0"
     inkscape:pageshadow="2"
     inkscape:window-width="1536"
     inkscape:window-height="801"
     id="namedview41"
     showgrid="false"
     inkscape:zoom="0.5474114"
     inkscape:cx="-105.03983"
     inkscape:cy="215.56"
     inkscape:window-x="-8"
     inkscape:window-y="-8"
     inkscape:window-maximized="1"
     inkscape:current-layer="Capa_1" /><g
     id="g3"
     transform="matrix(-0.70710678,-0.70710678,0.70710678,-0.70710678,215.55672,520.41229)"
     style="fill:#ffffff"><g
       id="g5"
       style="fill:#ffffff"><path
         d="m 431.12,41.977 c 0,-2.475 -0.955,-4.661 -2.857,-6.567 L 395.711,2.861 c -1.902,-1.906 -4.086,-2.856 -6.563,-2.856 -2.477,0 -4.661,0.953 -6.563,2.856 L 287.786,97.65 246.682,56.538 c -3.613,-3.617 -7.905,-5.426 -12.854,-5.426 -4.945,0 -9.227,1.809 -12.847,5.426 -3.614,3.616 -5.422,7.898 -5.422,12.847 l 0,127.906 c 0,4.952 1.808,9.233 5.422,12.851 3.62,3.615 7.901,5.424 12.847,5.424 l 127.906,0 c 4.949,0 9.24,-1.809 12.854,-5.424 3.613,-3.617 5.427,-7.898 5.427,-12.851 0,-4.948 -1.813,-9.231 -5.427,-12.847 L 333.474,143.33 428.268,48.543 c 1.897,-1.902 2.852,-4.092 2.852,-6.566 z"
         id="path7"
         inkscape:connector-curvature="0"
         style="fill:#ffffff" /><path
         d="m 197.286,215.569 -127.907,0 c -4.948,0 -9.231,1.809 -12.847,5.426 -3.617,3.613 -5.426,7.901 -5.426,12.847 0,4.948 1.809,9.232 5.426,12.847 L 97.644,287.802 2.857,382.589 C 0.949,384.492 0,386.683 0,389.153 c 0,2.478 0.949,4.667 2.857,6.57 L 35.4,428.269 c 1.906,1.902 4.093,2.847 6.567,2.847 2.474,0 4.665,-0.944 6.567,-2.847 l 94.789,-94.791 41.112,41.11 c 3.615,3.614 7.898,5.428 12.847,5.428 4.952,0 9.233,-1.813 12.85,-5.428 3.616,-3.61 5.424,-7.898 5.424,-12.847 l 0,-127.906 c 0,-4.949 -1.809,-9.233 -5.421,-12.84 -3.616,-3.617 -7.898,-5.426 -12.849,-5.426 z"
         id="path9"
         inkscape:connector-curvature="0"
         style="fill:#ffffff" /></g></g><g
     id="g11" /><g
     id="g13" /><g
     id="g15" /><g
     id="g17" /><g
     id="g19" /><g
     id="g21" /><g
     id="g23" /><g
     id="g25" /><g
     id="g27" /><g
     id="g29" /><g
     id="g31" /><g
     id="g33" /><g
     id="g35" /><g
     id="g37" /><g
     id="g39" /></svg>