<?xml version="1.0" encoding="iso-8859-1"?>
<!-- Generator: Adobe Illustrator 18.0.0, SVG Export Plug-In . SVG Version: 6.00 Build 0)  -->
<!DOCTYPE svg PUBLIC "-//W3C//DTD SVG 1.1//EN" "http://www.w3.org/Graphics/SVG/1.1/DTD/svg11.dtd">
<svg version="1.1" id="Capa_1" xmlns="http://www.w3.org/2000/svg" xmlns:xlink="http://www.w3.org/1999/xlink" x="0px" y="0px"
	 viewBox="0 0 57.804 57.804" style="enable-background:new 0 0 57.804 57.804;" xml:space="preserve">
<path d="M57.729,29.285c0.101-0.244,0.101-0.519,0-0.764c-0.051-0.123-0.125-0.234-0.217-0.326L44.399,15.081
	c-0.391-0.391-1.023-0.391-1.414,0s-0.391,1.023,0,1.414l11.406,11.407h-32.45c-0.224-2.475-1.279-4.888-3.169-6.778
	c-4.289-4.289-11.267-4.288-15.556,0c-4.289,4.289-4.289,11.267,0,15.556c2.145,2.145,4.961,3.217,7.778,3.217
	c2.816,0,5.633-1.072,7.777-3.217c1.89-1.89,2.945-4.303,3.169-6.777h32.45L42.985,41.309c-0.391,0.391-0.391,1.023,0,1.414
	c0.195,0.195,0.451,0.293,0.707,0.293s0.512-0.098,0.707-0.293l13.112-13.112C57.604,29.519,57.678,29.408,57.729,29.285z
	 M17.358,35.266c-3.509,3.51-9.217,3.512-12.728,0c-3.509-3.509-3.509-9.219,0-12.728c1.755-1.755,4.06-2.632,6.363-2.632
	c2.305,0,4.609,0.877,6.364,2.632C20.867,26.047,20.867,31.757,17.358,35.266z"/>
<g>
</g>
<g>
</g>
<g>
</g>
<g>
</g>
<g>
</g>
<g>
</g>
<g>
</g>
<g>
</g>
<g>
</g>
<g>
</g>
<g>
</g>
<g>
</g>
<g>
</g>
<g>
</g>
<g>
</g>
</svg>
